<svg xmlns="http://www.w3.org/2000/svg" width="21.701" height="21.701" viewBox="0 0 21.701 21.701"><g transform="translate(-2432 -151)"><g transform="translate(1588 -64)"><g transform="translate(844 215)"><circle cx="10.851" cy="10.851" r="10.851" fill="#03ebbd"/></g></g><path d="M-406.7,702.1l-7.17,7.17-.033.033-.107.1a.314.314,0,0,1-.446,0l-3.758-3.758a.324.324,0,0,1,0-.454l.892-.884a.314.314,0,0,1,.446,0l2.652,2.652,6.187-6.2a.478.478,0,0,1,.669,0l.669.669A.479.479,0,0,1-406.7,702.1Z" transform="translate(2855.575 -542.993)" fill="#fff"/></g></svg>