<svg xmlns="http://www.w3.org/2000/svg" width="272.735" height="92.046" viewBox="0 0 272.735 92.046">
  <g id="Koogle" transform="translate(-678 -214)">
    <path id="Path_177" data-name="Path 177" d="M1861.74,445.365l8.316,6.283-5.082,6.468a19.416,19.416,0,0,1,4.8,13.49c0,5.636-2.125,13.582-9.609,17,7.577,3.788,9.425,9.24,9.425,15.061,0,12.566-9.61,20.328-22.823,20.328s-23.1-8.039-23.1-20.328h11.181c0,5.914,5.451,9.794,11.919,9.794s11.55-3.511,11.55-9.794-5.914-9.147-11.55-9.147c-14.229,0-23.1-8.686-23.1-22.915s10.349-23.1,23.1-23.1c3.6,0,7.3.462,10.441,2.587Zm-26.888,26.242c0,7.946,5.359,12.659,11.919,12.659,6.468,0,11.827-4.8,11.827-12.659s-5.359-12.844-11.827-12.844C1840.212,458.763,1834.852,463.66,1834.852,471.607Z" transform="translate(-991.709 -217.951)" fill="#10e1ba"/>
    <path id="Path_178" data-name="Path 178" d="M2096.735,374.561v64.587h-11.18V374.561Z" transform="translate(-1200.278 -160.561)" fill="#10e1ba"/>
    <path id="Path_179" data-name="Path 179" d="M2190.694,489.432c.74,5.636,5.637,9.7,13.583,9.7,4.158,0,9.609-1.571,12.2-4.25l7.207,7.115c-4.8,4.99-12.658,7.392-19.589,7.392-15.708,0-25.04-9.7-25.04-24.3,0-13.86,9.424-23.839,24.208-23.839,15.246,0,24.763,9.425,23.007,28.182Zm24.763-9.333c-.74-5.914-5.36-8.87-11.827-8.87-6.1,0-11.088,2.957-12.751,8.87Z" transform="translate(-1275.741 -230.25)" fill="#10e1ba"/>
    <g id="Group_1083" data-name="Group 1083">
      <g id="Group_836" data-name="Group 836" transform="translate(770 269.29)">
        <path id="Path_169" data-name="Path 169" d="M463.744,540.127l-6.872,9.85L450,540.127s4.925-4.009,6.872-8.877C458.819,536.118,463.744,540.127,463.744,540.127Z" transform="translate(-450 -531.25)" fill="#55bbea"/>
      </g>
      <g id="Group_846" data-name="Group 846" transform="translate(722 226)">
        <g id="Group_845" data-name="Group 845" transform="translate(57.613 0)">
          <path id="Path_168" data-name="Path 168" d="M279.491,349.062,276.207,365.9s-7.521-17.333-27.374-15.424C248.833,350.474,260.821,342.915,279.491,349.062Z" transform="translate(-228.601 -346.653)" fill="#55bbea"/>
          <g id="Group_842" data-name="Group 842" transform="translate(0 6.826)">
            <path id="Subtraction_32" data-name="Subtraction 32" d="M22.89,45.779a23.059,23.059,0,0,1-4.613-.465,22.764,22.764,0,0,1-8.185-3.444A22.956,22.956,0,0,1,1.8,31.8,22.773,22.773,0,0,1,.465,27.5a23.112,23.112,0,0,1,0-9.226,22.764,22.764,0,0,1,3.444-8.185A22.957,22.957,0,0,1,13.98,1.8a22.774,22.774,0,0,1,4.3-1.334,23.112,23.112,0,0,1,9.226,0,22.764,22.764,0,0,1,8.185,3.444A22.956,22.956,0,0,1,43.98,13.98a22.774,22.774,0,0,1,1.334,4.3,23.113,23.113,0,0,1,0,9.226,22.764,22.764,0,0,1-3.444,8.185A22.956,22.956,0,0,1,31.8,43.98a22.774,22.774,0,0,1-4.3,1.334A23.059,23.059,0,0,1,22.89,45.779Zm0-35.539a12.65,12.65,0,1,0,12.65,12.65A12.664,12.664,0,0,0,22.89,10.24Z" transform="translate(0 0)" fill="#55bbea"/>
            <circle id="Ellipse_227" data-name="Ellipse 227" cx="6.352" cy="6.352" r="6.352" transform="translate(16.452 16.438)" fill="#55bbea"/>
          </g>
        </g>
        <g id="Group_844" data-name="Group 844" transform="translate(0 0)">
          <path id="Path_168-2" data-name="Path 168" d="M248.833,349.062l3.283,16.837s7.521-17.333,27.374-15.424C279.491,350.474,267.5,342.915,248.833,349.062Z" transform="translate(-248.833 -346.653)" fill="#55bbea"/>
          <g id="Group_843" data-name="Group 843" transform="translate(4.886 6.826)">
            <path id="Subtraction_32-2" data-name="Subtraction 32" d="M22.89,45.779a23.059,23.059,0,0,1-4.613-.465,22.764,22.764,0,0,1-8.185-3.444A22.956,22.956,0,0,1,1.8,31.8,22.773,22.773,0,0,1,.465,27.5a23.112,23.112,0,0,1,0-9.226,22.764,22.764,0,0,1,3.444-8.185A22.957,22.957,0,0,1,13.98,1.8a22.774,22.774,0,0,1,4.3-1.334,23.112,23.112,0,0,1,9.226,0,22.764,22.764,0,0,1,8.185,3.444A22.956,22.956,0,0,1,43.98,13.98a22.774,22.774,0,0,1,1.334,4.3,23.113,23.113,0,0,1,0,9.226,22.764,22.764,0,0,1-3.444,8.185A22.956,22.956,0,0,1,31.8,43.98a22.774,22.774,0,0,1-4.3,1.334A23.059,23.059,0,0,1,22.89,45.779Zm0-35.539a12.65,12.65,0,1,0,12.65,12.65A12.664,12.664,0,0,0,22.89,10.24Z" transform="translate(0 0)" fill="#55bbea"/>
            <circle id="Ellipse_227-2" data-name="Ellipse 227" cx="6.352" cy="6.352" r="6.352" transform="translate(16.452 16.438)" fill="#55bbea"/>
          </g>
        </g>
      </g>
    </g>
    <g id="Group_848" data-name="Group 848" transform="translate(678 214)">
      <path id="Path_181" data-name="Path 181" d="M973.719,1041.755v.833H960.136L942.3,1021.981v20.607H931.03V978H942.3v37.328l3.728-4.446,0,0a83.383,83.383,0,0,1,16.952-13.843,61.764,61.764,0,0,1,5.912-3.166l.828,3.166.448,1.716,1.067,4.074a106.032,106.032,0,0,0-17.123,13.9l-1.559,1.745Z" transform="translate(-931.03 -978)" fill="#10e1ba"/>
    </g>
  </g>
</svg>
