<svg xmlns="http://www.w3.org/2000/svg" width="24.611" height="14.07" viewBox="0 0 24.611 14.07">
  <g id="koogle_icon" transform="translate(20812 -1259)">
    <g id="Group_1111" data-name="Group 1111" transform="translate(-20812 1259)">
      <g id="Group_1105" data-name="Group 1105" transform="translate(10.888 9.821)">
        <path id="Path_238" data-name="Path 238" d="M453.117,533.264l-1.559,2.235L450,533.264a5.942,5.942,0,0,0,1.559-2.014A5.943,5.943,0,0,0,453.117,533.264Z" transform="translate(-450 -531.25)" fill="#c7c7c7"/>
      </g>
      <g id="Group_1110" data-name="Group 1110" transform="translate(0 0)">
        <g id="Group_1107" data-name="Group 1107" transform="translate(13.069 0)">
          <path id="Path_239" data-name="Path 239" d="M255.787,347.2l-.745,3.82a6.189,6.189,0,0,0-6.209-3.5S251.552,345.805,255.787,347.2Z" transform="translate(-244.244 -346.653)" fill="#c7c7c7"/>
          <g id="Group_1106" data-name="Group 1106" transform="translate(0 1.549)">
            <path id="Subtraction_41" data-name="Subtraction 41" d="M5.192,10.386a5.23,5.23,0,0,1-1.046-.106A5.163,5.163,0,0,1,2.289,9.5,5.208,5.208,0,0,1,.408,7.214a5.167,5.167,0,0,1-.3-.975,5.244,5.244,0,0,1,0-2.093A5.165,5.165,0,0,1,.887,2.29,5.207,5.207,0,0,1,3.171.408a5.165,5.165,0,0,1,.975-.3,5.242,5.242,0,0,1,2.093,0A5.163,5.163,0,0,1,8.1.887,5.208,5.208,0,0,1,9.976,3.172a5.167,5.167,0,0,1,.3.975,5.244,5.244,0,0,1,0,2.093A5.165,5.165,0,0,1,9.5,8.1,5.207,5.207,0,0,1,7.213,9.978a5.165,5.165,0,0,1-.975.3A5.23,5.23,0,0,1,5.192,10.386Zm0-8.063a2.87,2.87,0,1,0,2.869,2.87A2.873,2.873,0,0,0,5.192,2.323Z" transform="translate(0 0)" fill="#c7c7c7"/>
            <ellipse id="Ellipse_258" data-name="Ellipse 258" cx="1.441" cy="1.441" rx="1.441" ry="1.441" transform="translate(3.732 3.729)" fill="#c7c7c7"/>
          </g>
        </g>
        <g id="Group_1109" data-name="Group 1109" transform="translate(0 0)">
          <path id="Path_240" data-name="Path 240" d="M248.833,347.2l.745,3.82a6.189,6.189,0,0,1,6.209-3.5S253.068,345.805,248.833,347.2Z" transform="translate(-248.833 -346.653)" fill="#c7c7c7"/>
          <g id="Group_1108" data-name="Group 1108" transform="translate(1.108 1.549)">
            <path id="Subtraction_42" data-name="Subtraction 42" d="M5.192,10.386a5.23,5.23,0,0,1-1.046-.106A5.163,5.163,0,0,1,2.289,9.5,5.208,5.208,0,0,1,.408,7.214a5.167,5.167,0,0,1-.3-.975,5.244,5.244,0,0,1,0-2.093A5.165,5.165,0,0,1,.887,2.29,5.207,5.207,0,0,1,3.171.408a5.165,5.165,0,0,1,.975-.3,5.242,5.242,0,0,1,2.093,0A5.163,5.163,0,0,1,8.1.887,5.208,5.208,0,0,1,9.976,3.172a5.167,5.167,0,0,1,.3.975,5.244,5.244,0,0,1,0,2.093A5.165,5.165,0,0,1,9.5,8.1,5.207,5.207,0,0,1,7.213,9.978a5.165,5.165,0,0,1-.975.3A5.23,5.23,0,0,1,5.192,10.386Zm0-8.063a2.87,2.87,0,1,0,2.869,2.87A2.873,2.873,0,0,0,5.192,2.323Z" transform="translate(0 0)" fill="#c7c7c7"/>
            <ellipse id="Ellipse_261" data-name="Ellipse 261" cx="1.441" cy="1.441" rx="1.441" ry="1.441" transform="translate(3.732 3.729)" fill="#c7c7c7"/>
          </g>
        </g>
      </g>
    </g>
  </g>
</svg>
