<svg id="View_Result" data-name="View Result" xmlns="http://www.w3.org/2000/svg" width="46.057" height="46.056" viewBox="0 0 46.057 46.056">
  <circle id="Ellipse_205" data-name="Ellipse 205" cx="23.028" cy="23.028" r="23.028" transform="translate(0 0)" fill="#fb99a3"/>
  <g id="Group_755" data-name="Group 755" transform="translate(10.899 9.083)">
    <g id="Group_753" data-name="Group 753" transform="translate(0 0)">
      <path id="Subtraction_30" data-name="Subtraction 30" d="M22.964,28.588H2a2,2,0,0,1-2-2V2A2,2,0,0,1,2,0H4.443a1.428,1.428,0,0,0-.014.2A1.409,1.409,0,1,0,7.248.2,1.426,1.426,0,0,0,7.233,0h4.055a1.428,1.428,0,0,0-.014.2,1.409,1.409,0,1,0,2.818,0,1.426,1.426,0,0,0-.014-.2h4.055a1.429,1.429,0,0,0-.014.2,1.409,1.409,0,1,0,2.819,0,1.426,1.426,0,0,0-.014-.2h2.041a2,2,0,0,1,2,2V26.588A2,2,0,0,1,22.964,28.588Z" transform="translate(0 0)" fill="#fff"/>
      <g id="Group_750" data-name="Group 750" transform="translate(5.072 5.048)">
        <g id="Group_748" data-name="Group 748" transform="translate(0 5.033)">
          <path id="Path_154" data-name="Path 154" d="M1675.22-49.864h-7.037l-1.153,2.538h-2.749l6.037-13.458h2.769l6.037,13.458h-2.769Zm-3.518-8.094-2.5,5.729h5Z" transform="translate(-1664.28 60.784)" fill="#fb99a3"/>
        </g>
        <g id="Group_749" data-name="Group 749" transform="translate(10.397 0)">
          <path id="Path_155" data-name="Path 155" d="M1821.592-134.591v-1.588h1.29v1.588h1.588v1.183h-1.588v1.6h-1.29v-1.6h-1.567v-1.183Z" transform="translate(-1820.025 136.179)" fill="#fb99a3"/>
        </g>
      </g>
    </g>
  </g>
</svg>
