<svg id="Biology" xmlns="http://www.w3.org/2000/svg" xmlns:xlink="http://www.w3.org/1999/xlink" width="30.296" height="48" viewBox="0 0 30.296 48">
  <defs>
    <linearGradient id="linear-gradient" x1="0.5" y1="1" x2="0.5" gradientUnits="objectBoundingBox">
      <stop offset="0" stop-color="#e99eff"/>
      <stop offset="1" stop-color="#f2c8ff"/>
    </linearGradient>
  </defs>
  <path id="Path_355" data-name="Path 355" d="M-423.966,215.889a5.69,5.69,0,0,1-5.689-5.692,5.691,5.691,0,0,1,5.689-5.692h2.377v-.211a2.608,2.608,0,0,0-2.42-2.605v-1.255a2.035,2.035,0,0,0-2.036-2.034h-3.428a2.034,2.034,0,0,0-2.032,2.036v1.252a2.61,2.61,0,0,0-2.424,2.605V216.16a2.613,2.613,0,0,0,2.611,2.615h1.432v2.015a1.538,1.538,0,0,0,1.538,1.538h1.18a1.538,1.538,0,0,0,1.538-1.538v-2.015h1.435a2.612,2.612,0,0,0,2.607-2.62v-.266Z" transform="translate(433.93 -198.401)" fill="url(#linear-gradient)"/>
  <path id="Path_356" data-name="Path 356" d="M-418.644,207.237h-5.081a3.271,3.271,0,0,0-3.282,3.259,3.272,3.272,0,0,0,3.282,3.26h4.778a8.98,8.98,0,0,1,9.1,8.589,8.759,8.759,0,0,1-6.087,8.488,3.429,3.429,0,0,1,.267,1.327v5.33a15.3,15.3,0,0,0,12.4-14.982A15.325,15.325,0,0,0-418.644,207.237Z" transform="translate(433.56 -198.693)" fill="url(#linear-gradient)"/>
  <path id="Path_357" data-name="Path 357" d="M-429.14,233.166a3.465,3.465,0,0,1,.133-.905h-1.419a3.282,3.282,0,0,0-3.282,3.283h0a3.282,3.282,0,0,0,3.282,3.283h1.286Z" transform="translate(433.922 -199.691)" fill="url(#linear-gradient)"/>
  <path id="Path_136-2" data-name="Path 136-2" d="M-411.315,244.463a3.218,3.218,0,0,1-3.216,3.216H-430.5a3.216,3.216,0,0,1-3.209-3.223,3.217,3.217,0,0,1,3.209-3.21h3.767v-6.7a4.066,4.066,0,0,1,4.065-4.065h.308a4.064,4.064,0,0,1,4.064,4.065v6.7h3.767A3.223,3.223,0,0,1-411.315,244.463Z" transform="translate(433.923 -199.679)" fill="url(#linear-gradient)"/>
</svg>
