<svg xmlns="http://www.w3.org/2000/svg" width="22" height="22" viewBox="0 0 22 22"><g transform="translate(-1100.847 -62)"><path d="M-44.17,1818.084a11.005,11.005,0,0,0-8.451-8.822c-.5-.1-1.017-.152-1.526-.227-.056-.008-.111-.023-.166-.036h-1.375c-.4.055-.807.1-1.208.167a10.986,10.986,0,0,0-8.845,8.476c-.1.489-.149.989-.222,1.483-.009.062-.024.124-.037.186v1.375c.056.409.1.82.17,1.228a11,11,0,0,0,8.451,8.822c.5.105,1.017.152,1.526.227.056.008.111.024.166.036h1.375c.4-.055.807-.1,1.208-.167a10.976,10.976,0,0,0,8.755-8.1c.151-.608.21-1.238.313-1.858.01-.063.025-.124.037-.186v-1.375C-44.056,1818.9-44.1,1818.492-44.17,1818.084Zm-10.823-5.419a1.846,1.846,0,0,1,1.829,1.837A1.849,1.849,0,0,1-55,1816.337a1.847,1.847,0,0,1-1.839-1.828A1.843,1.843,0,0,1-54.993,1812.665Zm2.714,14.67q-2.728.008-5.455,0a.9.9,0,0,1-.928-.943.91.91,0,0,1,.958-.89h.851V1820h-.834a.912.912,0,0,1-.975-.917.914.914,0,0,1,.977-.918q1.761-.005,3.522,0a.93.93,0,0,1,1,1.011q0,3.029,0,6.057v.269h.858a.912.912,0,0,1,.967.9A.9.9,0,0,1-52.279,1827.335Z" transform="translate(1166.847 -1747)" fill="#10e1ba"/></g></svg>