<svg xmlns="http://www.w3.org/2000/svg" width="21.7" height="21.7" viewBox="0 0 21.7 21.7"><g transform="translate(-2432 -251)"><g transform="translate(1629 36)"><circle cx="10.85" cy="10.85" r="10.85" transform="translate(803 215)" fill="#fcc573"/></g><g transform="translate(2437 256)"><path d="M11.645.866H10.105q.008-.256.009-.514A.351.351,0,0,0,9.762,0H2.234a.351.351,0,0,0-.351.351q0,.259.009.514H.351A.351.351,0,0,0,0,1.217,7.617,7.617,0,0,0,1.159,5.4,3.667,3.667,0,0,0,3.944,7.21a3.609,3.609,0,0,0,.761.639V9.411h-.59A1.294,1.294,0,0,0,2.823,10.7v.59H2.8a.351.351,0,1,0,0,.7H9.2a.351.351,0,1,0,0-.7H9.173V10.7A1.294,1.294,0,0,0,7.88,9.411h-.59V7.849a3.609,3.609,0,0,0,.761-.639A3.667,3.667,0,0,0,10.837,5.4,7.617,7.617,0,0,0,12,1.217.351.351,0,0,0,11.645.866Zm-9.9,4.146A6.774,6.774,0,0,1,.71,1.569H1.93A11.745,11.745,0,0,0,3.022,5.832q.141.281.293.531A3.389,3.389,0,0,1,1.744,5.011Zm8.508,0A3.39,3.39,0,0,1,8.681,6.364q.153-.25.293-.531a11.746,11.746,0,0,0,1.092-4.264h1.22A6.774,6.774,0,0,1,10.252,5.011Zm0,0" fill="#fff"/></g></g></svg>