<svg width="22" height="22" viewBox="0 0 22 22" fill="none" xmlns="http://www.w3.org/2000/svg">
<path d="M11 22C17.0751 22 22 17.0751 22 11C22 4.92487 17.0751 0 11 0C4.92487 0 0 4.92487 0 11C0 17.0751 4.92487 22 11 22Z" fill="#E394FF"/>
<path d="M5.98779 16.7055C6.08319 16.7356 6.18361 16.7466 6.28326 16.7379C6.3829 16.7291 6.47986 16.7008 6.56857 16.6546C6.65729 16.6084 6.73601 16.5451 6.80028 16.4685C6.86454 16.3918 6.91309 16.3033 6.94312 16.2079L7.73252 13.7057H10.9962L11.7856 16.2079C11.8463 16.4006 11.981 16.5612 12.1602 16.6545C12.3393 16.7479 12.5482 16.7662 12.7409 16.7055C12.9336 16.6448 13.0942 16.5101 13.1876 16.3309C13.2809 16.1518 13.2992 15.9429 13.2385 15.7502L12.593 13.7037C12.7873 13.6837 12.9666 13.5898 13.0936 13.4413C13.2206 13.2929 13.2858 13.1013 13.2755 12.9062C13.2652 12.7111 13.1804 12.5274 13.0384 12.3931C12.8965 12.2589 12.7084 12.1843 12.513 12.1848H12.1133L10.0908 5.77744C10.0423 5.6228 9.94562 5.48769 9.81496 5.39177C9.6843 5.29585 9.52645 5.24414 9.36436 5.24414C9.20227 5.24414 9.04439 5.29585 8.91373 5.39177C8.78307 5.48769 8.68643 5.6228 8.63787 5.77744L6.61535 12.1848H6.21565C6.02027 12.1843 5.83216 12.2589 5.69024 12.3931C5.54833 12.5274 5.46347 12.7111 5.4532 12.9062C5.44293 13.1013 5.50804 13.2929 5.63508 13.4413C5.76211 13.5898 5.94134 13.6837 6.13569 13.7037L5.49016 15.7502C5.46008 15.8456 5.44911 15.946 5.45784 16.0456C5.46657 16.1453 5.49485 16.2422 5.54106 16.331C5.58727 16.4197 5.65052 16.4984 5.72717 16.5627C5.80383 16.627 5.89237 16.6755 5.98779 16.7055V16.7055ZM9.36335 8.53746L10.5145 12.1848H8.21218L9.36335 8.53746Z" fill="white"/>
<path d="M15.5251 5.24512C15.3231 5.24512 15.1294 5.32533 14.9867 5.46813C14.8439 5.61093 14.7636 5.80461 14.7636 6.00656V6.84396H13.9263C13.7243 6.84396 13.5306 6.92417 13.3878 7.06697C13.245 7.20977 13.1648 7.40345 13.1648 7.6054C13.1648 7.80735 13.245 8.00103 13.3878 8.14383C13.5306 8.28663 13.7243 8.36684 13.9263 8.36684H14.7636V9.20424C14.7636 9.40619 14.8439 9.59984 14.9867 9.74264C15.1294 9.88544 15.3231 9.96568 15.5251 9.96568C15.727 9.96568 15.9207 9.88544 16.0635 9.74264C16.2063 9.59984 16.2865 9.40619 16.2865 9.20424V8.36684H17.1239C17.3258 8.36684 17.5195 8.28663 17.6623 8.14383C17.8051 8.00103 17.8854 7.80735 17.8854 7.6054C17.8854 7.40345 17.8051 7.20977 17.6623 7.06697C17.5195 6.92417 17.3258 6.84396 17.1239 6.84396H16.2865V6.00454C16.286 5.80294 16.2055 5.6098 16.0628 5.46743C15.92 5.32506 15.7267 5.24512 15.5251 5.24512V5.24512Z" fill="white"/>
</svg>
