<svg xmlns="http://www.w3.org/2000/svg" width="57.893" height="57.893" viewBox="0 0 57.893 57.893">
  <g id="TIme" transform="translate(-0.001)">
    <g id="Group_896" data-name="Group 896" transform="translate(0.001)">
      <path id="Path_189" data-name="Path 189" d="M28.947,0A28.947,28.947,0,1,0,57.894,28.946,28.946,28.946,0,0,0,28.947,0Zm2,32.485a1.953,1.953,0,0,1-.024.228c-.008.057-.011.116-.024.172s-.035.116-.054.175a2.046,2.046,0,0,1-.073.208c-.006.012-.008.024-.013.036a1.984,1.984,0,0,1-.15.263l-.012.015a1.993,1.993,0,0,1-.211.256c-.021.022-.042.041-.065.062a1.916,1.916,0,0,1-.211.175c-.023.017-.045.034-.069.05a2,2,0,0,1-.3.163c-.023.01-.046.016-.069.025a2.011,2.011,0,0,1-.269.084c-.033.008-.066.015-.1.021a1.993,1.993,0,0,1-.359.036c-.025,0-.05-.008-.074-.008a2.014,2.014,0,0,1-.342-.037c-.035-.008-.069-.023-.1-.032a2.032,2.032,0,0,1-.3-.1c-.011-.006-.023-.007-.034-.012l-11.1-5.235A2,2,0,1,1,18.7,25.4l8.243,3.887V12.013a2,2,0,1,1,4,0V32.449h0C30.949,32.461,30.946,32.473,30.946,32.485Z" transform="translate(-0.001 0)" fill="#fb99a3"/>
    </g>
  </g>
</svg>
